REM MD5 d91a5ac71b38c608ff62ce70b83207c4
FILE "Wild 9 (Europe) (Demo).bin" BINARY
  TRACK 01 MODE2/2352
    INDEX 01 00:00:00
  TRACK 02 AUDIO
    INDEX 00 01:26:50
    INDEX 01 01:28:50
  TRACK 03 AUDIO
    INDEX 00 03:20:52
    INDEX 01 03:22:52
REM LEADOUT 06:51:51
